<?xml version="1.0" standalone="no"?>
<!DOCTYPE svg PUBLIC "-//W3C//DTD SVG 20010904//EN"
 "http://www.w3.org/TR/2001/REC-SVG-20010904/DTD/svg10.dtd">
<svg version="1.0" xmlns="http://www.w3.org/2000/svg"
 width="400.000000pt" height="400.000000pt" viewBox="0 0 400.000000 400.000000"
 preserveAspectRatio="xMidYMid meet">
<metadata>
Created by potrace 1.14, written by Peter Selinger 2001-2017
</metadata>
<g transform="translate(0.000000,400.000000) scale(0.100000,-0.100000)"
fill="#000000" stroke="none">
<path d="M1510 2731 c-59 -18 -150 -85 -150 -110 0 -6 -7 -11 -16 -11 -9 0
-13 5 -9 13 4 6 -3 1 -14 -13 -30 -36 -36 -44 -38 -57 -2 -7 -7 -29 -11 -51
-12 -52 -5 -110 17 -141 10 -14 21 -50 25 -80 13 -99 51 -157 129 -201 l39
-21 -8 33 c-20 91 -3 307 25 316 6 2 11 9 11 16 0 30 114 106 159 106 11 0 22
4 25 8 12 19 134 -1 196 -33 75 -38 110 -97 106 -180 -7 -125 -120 -221 -270
-228 -53 -3 -61 -9 -47 -36 6 -11 12 -31 13 -45 1 -15 6 -26 10 -26 4 0 8 -7
8 -15 0 -8 19 -55 41 -104 30 -64 46 -88 56 -84 7 3 13 2 11 -3 -2 -11 39
-100 55 -121 7 -8 28 -31 47 -53 19 -21 44 -49 56 -62 59 -66 108 -102 136
-100 18 2 27 -2 23 -8 -3 -5 -1 -10 4 -10 6 0 11 -6 11 -12 0 -7 14 -22 32
-33 120 -75 226 -104 438 -121 47 -3 88 -8 93 -11 4 -2 7 -2 7 1 0 3 -24 18
-52 32 -141 71 -327 230 -407 347 -25 37 -47 55 -95 77 -33 16 -74 39 -91 50
l-30 21 45 -6 c78 -12 84 -10 54 23 -37 40 -144 176 -144 182 0 3 19 15 43 28
23 12 56 37 74 55 56 56 83 86 83 92 0 3 7 19 16 36 8 17 18 41 21 52 9 30 8
176 -1 212 -31 131 -149 231 -311 264 -103 21 -282 17 -348 -8 -37 -14 -44
-14 -29 1 26 26 11 34 -38 19z"/>
</g>
</svg>
